<svg width="347" height="48" viewBox="0 0 347 48" fill="none" xmlns="http://www.w3.org/2000/svg">
<path d="M30.8438 1.2334C30.7168 3.22233 30.6004 5.1901 30.4946 7.13672C30.3888 9.08333 30.2513 11.0511 30.082 13.04L16.625 13.7383L16.3076 17.7373H25.7656L25.0674 27.5762L15.5459 27.8936L15.2285 32.5273H23.0996H28.6855C28.5586 34.8548 28.4211 37.1717 28.2729 39.478C28.146 41.7632 28.0296 44.0589 27.9238 46.3652L0.56543 47L1.58105 1.2334H30.8438ZM71.2705 2.50293L59.6543 46.6826L43.9121 47.5713L29.6299 2.94727L44.6738 1.55078L50.7676 27.5762L56.6709 1.55078L71.2705 2.50293ZM102.874 1.2334C102.747 3.22233 102.631 5.1901 102.525 7.13672C102.419 9.08333 102.282 11.0511 102.112 13.04L88.6553 13.7383L88.3379 17.7373H97.7959L97.0977 27.5762L87.5762 27.8936L87.2588 32.5273H95.1299H100.716C100.589 34.8548 100.451 37.1717 100.303 39.478C100.176 41.7632 100.06 44.0589 99.9541 46.3652L72.5957 47L73.6113 1.2334H102.874ZM147.649 1.4873L145.364 44.5244L128.733 46.0479L119.846 23.0059L118.45 46.4922H104.167L105.31 1.4873L121.179 0.725586L132.161 23.5771L132.668 1.99512L147.649 1.4873ZM184.299 1.61426L183.981 15.0713L174.523 15.4521L172.111 45.54L158.718 46.2383L158.781 16.1504L149.323 16.6582L149.704 1.67773L184.299 1.61426ZM216.601 1.2334C216.474 3.22233 216.357 5.1901 216.251 7.13672C216.146 9.08333 216.008 11.0511 215.839 13.04L202.382 13.7383V17.7373H214.062L213.427 27.5762L202.318 27.8936L202.382 46.6826L186.322 47L187.338 1.2334H216.601ZM246.617 28.9092L245.284 43.001L218.561 45.0957C218.688 37.7113 218.825 30.3691 218.973 23.0693C219.142 15.7695 219.343 8.42741 219.576 1.04297H236.08C235.593 5.67676 235.128 10.3105 234.684 14.9443C234.239 19.557 233.922 24.2119 233.731 28.9092C234.726 28.9515 235.71 28.9727 236.683 28.9727C237.656 28.9727 238.64 28.9727 239.635 28.9727C240.82 28.9727 241.983 28.9621 243.126 28.9409C244.269 28.9198 245.432 28.9092 246.617 28.9092ZM287.837 24.5928C287.837 26.5182 287.615 28.3802 287.171 30.1787C286.727 31.9561 286.081 33.6276 285.235 35.1934C284.41 36.7591 283.394 38.1979 282.188 39.5098C281.003 40.8005 279.66 41.9113 278.157 42.8423C276.676 43.7733 275.057 44.5033 273.301 45.0322C271.545 45.54 269.683 45.7939 267.715 45.7939C265.811 45.7939 263.991 45.5506 262.256 45.064C260.542 44.5773 258.934 43.9002 257.432 43.0327C255.93 42.144 254.565 41.0861 253.338 39.8589C252.132 38.6105 251.095 37.2352 250.228 35.7329C249.381 34.2095 248.715 32.5802 248.228 30.8452C247.763 29.1102 247.53 27.3011 247.53 25.418C247.53 23.5771 247.752 21.7786 248.196 20.0225C248.641 18.2451 249.275 16.5736 250.101 15.0078C250.947 13.4421 251.963 12.0033 253.147 10.6914C254.332 9.37956 255.655 8.24756 257.115 7.29541C258.596 6.34326 260.193 5.6027 261.907 5.07373C263.621 4.54476 265.43 4.28027 267.334 4.28027C270.403 4.28027 273.195 4.75635 275.713 5.7085C278.252 6.66064 280.411 8.02539 282.188 9.80273C283.986 11.5589 285.372 13.696 286.346 16.2139C287.34 18.7106 287.837 21.5036 287.837 24.5928ZM273.746 25.418C273.746 24.5081 273.608 23.63 273.333 22.7837C273.079 21.9162 272.698 21.1545 272.19 20.4985C271.683 19.8215 271.048 19.2819 270.286 18.8799C269.546 18.4567 268.689 18.2451 267.715 18.2451C266.721 18.2451 265.832 18.425 265.049 18.7847C264.266 19.1444 263.589 19.6416 263.018 20.2764C262.468 20.89 262.045 21.62 261.749 22.4663C261.452 23.2915 261.304 24.1696 261.304 25.1006C261.304 25.9893 261.431 26.8779 261.685 27.7666C261.939 28.6553 262.32 29.4593 262.828 30.1787C263.335 30.8981 263.96 31.48 264.7 31.9243C265.462 32.3687 266.34 32.5908 267.334 32.5908C268.329 32.5908 269.218 32.4004 270 32.0195C270.805 31.6175 271.482 31.0885 272.032 30.4326C272.582 29.7555 273.005 28.9832 273.301 28.1157C273.597 27.2482 273.746 26.349 273.746 25.418ZM346.672 2.94727L339.246 46.9365L321.218 47.3174L317.346 24.5293L313.474 45.667L295.447 46.3018L287.957 2.94727L303.699 1.55078L306.873 27.8936L311.125 1.55078H323.503L328.455 28.2109L330.994 1.55078L346.672 2.94727Z" fill="white"/>
</svg>
